<?xml version="1.0" encoding="UTF-8"?>
<svg version="1.1" xmlns="http://www.w3.org/2000/svg" width="512" height="512">
<path d="M0 0 C3.66524817 1.02989701 7.14354118 2.44064602 10.66357422 3.88378906 C11.70206512 4.29676743 12.74055603 4.70974579 13.81051636 5.13523865 C17.23059579 6.49905531 20.6425069 7.88217807 24.0546875 9.265625 C26.44020335 10.22131375 28.82620782 11.17578368 31.212677 12.12908936 C36.84992451 14.38436109 42.48213003 16.65180337 48.11205399 18.92528415 C54.48376638 21.4975375 60.86165694 24.05429075 67.24015021 26.60967302 C78.16192104 30.98552811 89.07900785 35.37291298 99.99084473 39.77348328 C101.79145695 40.49954301 103.59277113 41.22386506 105.39488029 41.94620132 C107.17511582 42.66632556 108.95028268 43.39907512 110.72085762 44.14263535 C111.59342138 44.50508472 112.46598515 44.8675341 113.36499023 45.2409668 C114.1355928 45.56616806 114.90619537 45.89136932 115.70014954 46.22642517 C119.85985633 47.62557895 124.03101753 47.60336035 128.3828125 47.609375 C129.32309296 47.62591125 130.26337341 47.64244751 131.23214722 47.65948486 C134.19650059 47.70755729 137.16034263 47.7292445 140.125 47.75 C142.15106684 47.77819383 144.17711027 47.80812596 146.203125 47.83984375 C151.13537448 47.91330487 156.06734683 47.96312748 161 48 C160.9858606 47.07537964 160.9858606 47.07537964 160.97143555 46.13208008 C160.9035601 37.95942927 161.30355833 29.84258892 161.8125 21.6875 C161.84770752 21.02032959 161.88291504 20.35315918 161.91918945 19.66577148 C162.02313419 17.69703423 162.1461235 15.72933188 162.26953125 13.76171875 C162.33760986 12.60631592 162.40568848 11.45091309 162.47583008 10.26049805 C163.05437962 6.66174205 164.13397034 4.11908776 166 1 C168.44490205 -0.22245103 170.03532039 -0.13386238 172.76925659 -0.14717102 C174.27925735 -0.15790398 174.27925735 -0.15790398 175.81976318 -0.16885376 C176.92837708 -0.17154266 178.03699097 -0.17423157 179.17919922 -0.17700195 C180.34349457 -0.18357315 181.50778992 -0.19014435 182.70736694 -0.19691467 C186.57314105 -0.21668016 190.43887629 -0.22831632 194.3046875 -0.23828125 C195.62176823 -0.24235678 196.93884895 -0.2464323 198.29584122 -0.25063133 C204.5450254 -0.26968202 210.79419777 -0.28391412 217.04340541 -0.2922433 C224.25980826 -0.3020202 231.47590473 -0.32835158 238.69219959 -0.36874419 C244.26847975 -0.39888728 249.844672 -0.41371038 255.42103207 -0.41702431 C258.75241207 -0.41937667 262.0833894 -0.43032586 265.41469955 -0.45348549 C269.13072139 -0.47771774 272.84593581 -0.47694081 276.56201172 -0.4699707 C277.66657715 -0.48278076 278.77114258 -0.49559082 279.90917969 -0.50878906 C281.42763992 -0.49837334 281.42763992 -0.49837334 282.97677612 -0.48774719 C283.85541258 -0.49013555 284.73404903 -0.4925239 285.63931084 -0.49498463 C288.80392181 0.16856473 289.99001782 1.52047867 292 4 C293.08961954 7.26885862 293.30456013 10.03085747 293.53515625 13.46875 C293.62216797 14.76296875 293.70917969 16.0571875 293.79882812 17.390625 C293.86372437 18.40479492 293.86372437 18.40479492 293.92993164 19.43945312 C294.06026528 21.46526518 294.19857073 23.49041355 294.33789062 25.515625 C294.83158312 33.02865961 295.04972031 40.4725487 295 48 C330.46146869 50.85786348 358.15109915 41.06443583 390.43438721 27.23132324 C396.54478534 24.63124568 402.68856811 22.11348953 408.83007812 19.58789062 C418.70294157 15.51731177 428.55491145 11.40090587 438.37963867 7.21540833 C440.91682307 6.13645491 443.45722967 5.06571731 446 4 C446.89479002 3.62272074 447.78958004 3.24544147 448.71148491 2.85672951 C449.59027872 2.49387037 450.46907253 2.13101124 451.37449646 1.75715637 C452.15831916 1.43127942 452.94214186 1.10540247 453.74971676 0.76965046 C457.45093199 -0.49625329 460.11184862 -0.53629674 464 0 C466.5 1.5 466.5 1.5 468 4 C468.77403846 9.41826923 468.77403846 9.41826923 468 12 C465.87890625 14.36328125 465.87890625 14.36328125 463 17 C461.94439777 18.0042477 460.88975206 19.00950155 459.8359375 20.015625 C453.65310968 25.81341871 447.39843069 31.39259218 440.77734375 36.69140625 C437.57557201 39.35279458 434.53765082 42.15462246 431.5 45 C427.60423719 48.64888449 423.66665716 52.15698438 419.5 55.5 C414.11278757 59.82549903 409.08216284 64.47280013 404.03515625 69.18359375 C400.88124692 72.12454765 397.65456406 74.97473566 394.390625 77.79296875 C393.57158034 78.50388111 392.76688674 79.23311326 392 80 C393.32 80.66 394.64 81.32 396 82 C396 108.73 396 135.46 396 163 C397.98 163.66 399.96 164.32 402 165 C421.14 174.57 440.28 184.14 460 194 C460 272.54 460 351.08 460 432 C438.88 432 417.76 432 396 432 C396.15818611 446.30059645 396.15818611 446.30059645 396.36035156 460.60058594 C396.37203548 462.39517263 396.38222801 464.18976992 396.390625 465.984375 C396.41108887 466.9139502 396.43155273 467.84352539 396.45263672 468.80126953 C396.45471738 472.64425776 396.42693275 475.23311812 394.53808594 478.62597656 C389.96568482 481.10130106 385.5208613 480.60124734 380.56072998 479.41821289 C377.91349601 478.61240075 375.31563894 477.71533184 372.7109375 476.78125 C371.74102875 476.44744324 370.77112 476.11363647 369.77182007 475.76971436 C367.70340953 475.05776601 365.63688538 474.34031692 363.57214355 473.61779785 C346.86159631 467.77539088 330.21056226 462.30600466 312.93896484 458.38476562 C311.7989502 458.11857422 310.65893555 457.85238281 309.484375 457.578125 C308.51209961 457.36575195 307.53982422 457.15337891 306.53808594 456.93457031 C303.41300311 455.78385686 301.98062919 454.68115126 300 452 C299.45410156 449.06738281 299.45410156 449.06738281 299.390625 445.703125 C299.35839844 444.49785156 299.32617188 443.29257812 299.29296875 442.05078125 C299.27878906 440.79652344 299.26460938 439.54226563 299.25 438.25 C299.20552734 436.34541016 299.20552734 436.34541016 299.16015625 434.40234375 C299.08946049 431.26816515 299.03675988 428.13473044 299 425 C294.76447493 427.67466626 290.5483967 430.37687041 286.34741211 433.10546875 C284.9177678 434.028508 283.48322672 434.94401058 282.04370117 435.8515625 C279.96740872 437.16245119 277.91061688 438.50002156 275.85546875 439.84375 C275.21473923 440.2399353 274.5740097 440.63612061 273.91386414 441.04431152 C262.92021472 448.365113 261.50127124 470.3522395 259 480 C238.54 480 218.08 480 197 480 C195.68 474.9675 194.36 469.935 193 464.75 C192.58234375 463.16799805 192.1646875 461.58599609 191.734375 459.95605469 C191.40953125 458.70727539 191.0846875 457.45849609 190.75 456.171875 C190.49089844 455.19855225 190.49089844 455.19855225 190.2265625 454.20556641 C189.39226579 450.97514969 189 448.37357626 189 445 C187.96033081 444.63285889 187.96033081 444.63285889 186.8996582 444.25830078 C183.54338566 442.80185314 180.61949261 440.91326156 177.60546875 438.8671875 C177.01325027 438.47048859 176.4210318 438.07378967 175.81086731 437.66506958 C173.93345918 436.40604397 172.06045101 435.14064406 170.1875 433.875 C168.90979112 433.0165014 167.63179917 432.15842394 166.35351562 431.30078125 C163.23237998 429.20538052 160.11517229 427.10425497 157 425 C156.98598145 426.19544434 156.98598145 426.19544434 156.97167969 427.41503906 C156.91798502 431.02732175 156.83433392 434.63830821 156.75 438.25 C156.73582031 439.50425781 156.72164062 440.75851562 156.70703125 442.05078125 C156.67480469 443.25605469 156.64257812 444.46132813 156.609375 445.703125 C156.58842773 446.81333008 156.56748047 447.92353516 156.54589844 449.06738281 C155.8670857 452.71402798 154.97679832 453.82216385 152 456 C149.13891602 457.04223633 149.13891602 457.04223633 145.75390625 457.83203125 C144.44966703 458.15127861 143.14555578 458.4710491 141.84155273 458.79125977 C140.79920975 459.03937912 140.79920975 459.03937912 139.73580933 459.29251099 C122.14653245 463.50094585 105.12465736 469.13167998 88.07055664 475.12231445 C86.22282363 475.75994178 84.3750862 476.3975563 82.52734375 477.03515625 C81.69729828 477.33472229 80.86725281 477.63428833 80.01205444 477.94293213 C74.6844595 479.77046168 69.63791512 480.96461152 64 480 C61.46191406 478.62597656 61.46191406 478.62597656 60 476 C59.47730579 472.65107583 59.53491718 469.36663593 59.609375 465.984375 C59.61340332 465.12344238 59.61743164 464.26250977 59.62158203 463.37548828 C59.64247283 460.16677466 59.69831856 456.9583654 59.75 453.75 C59.8325 446.5725 59.915 439.395 60 432 C38.88 432 17.76 432 -4 432 C-4 353.46 -4 274.92 -4 194 C58 163 58 163 60 163 C60 136.27 60 109.54 60 82 C61.32 81.34 62.64 80.68 64 80 C60.18993833 75.95587311 56.20997013 72.29063123 51.875 68.8125 C47.58439876 65.3623864 43.51333509 61.76227908 39.5 58 C35.60440207 54.35095166 31.66663899 50.84300105 27.5 47.5 C23.33333048 44.15697445 19.39586052 40.64879479 15.5 37 C10.68397931 32.4908408 5.72757596 28.24441232 0.5859375 24.10546875 C-10.43312102 15.13375796 -10.43312102 15.13375796 -12 12 C-12.56872038 4.9478673 -12.56872038 4.9478673 -10.5 1.5 C-7.00836296 -0.59498223 -3.93180696 -0.48473449 0 0 Z " fill="#000000" transform="translate(28,16)"/>
<path d="M0 0 C8.806875 -0.2475 17.61375 -0.495 26.6875 -0.75 C29.44053467 -0.85924805 32.19356934 -0.96849609 35.0300293 -1.08105469 C54.65306857 -1.53273388 54.65306857 -1.53273388 61.31318665 4.12664795 C63.75435667 6.60775612 65.84968748 9.26143804 68 12 C69.79242353 13.54865393 71.62052285 15.05823831 73.5 16.5 C77.66667695 19.84303151 81.60408079 23.3512591 85.5 27 C90.34015095 31.53051891 95.29134497 35.81485014 100.46484375 39.96484375 C102.22301146 41.37625419 103.93029923 42.85250417 105.5925293 44.37573242 C109.36533401 47.51420705 113.52934858 49.21464874 118.0546875 51.0234375 C118.91506622 51.37387115 119.77544495 51.72430481 120.66189575 52.08535767 C122.47329732 52.81865689 124.28706518 53.54613512 126.10302734 54.26806641 C128.86820658 55.37228718 131.61939492 56.5072017 134.37109375 57.64453125 C136.13986019 58.35607081 137.90936873 59.06576899 139.6796875 59.7734375 C140.90194534 60.28262222 140.90194534 60.28262222 142.14889526 60.80209351 C151.01974888 64.25870261 157.46854492 62.15819936 166.07421875 58.82421875 C166.91990921 58.49895706 167.76559967 58.17369537 168.63691711 57.83857727 C170.41977486 57.14699275 172.20053023 56.44996639 173.97924805 55.74780273 C176.65262733 54.70115293 179.33960964 53.69720979 182.02929688 52.69335938 C192.0902811 48.80916713 199.82170975 44.5777655 207.32714844 36.76513672 C209.92739833 34.07510838 212.63107489 31.75638852 215.5625 29.4375 C220.051219 25.8347981 224.29541454 22.01892502 228.50439453 18.09887695 C232.69040761 14.22432724 237.05819613 10.61597109 241.52734375 7.0703125 C244.09514317 5.09342315 244.09514317 5.09342315 245.87207031 2.40112305 C250.75271159 -1.34545102 255.53691208 -0.61998391 261.51953125 -0.48828125 C263.13377991 -0.48072815 263.13377991 -0.48072815 264.78063965 -0.47302246 C268.79153168 -0.44690896 272.80204325 -0.3771018 276.8125 -0.3125 C285.784375 -0.209375 294.75625 -0.10625 304 0 C304 26.4 304 52.8 304 80 C203.68 80 103.36 80 0 80 C0 53.6 0 27.2 0 0 Z " fill="#2C74BA" transform="translate(104,152)"/>
<path d="M0 0 C1.44293861 0.2904569 2.8859639 0.5804835 4.32907104 0.87010193 C8.09454115 1.62698178 11.85881883 2.38963317 15.62286377 3.15356445 C19.47702836 3.9346969 23.33231191 4.71026588 27.1875 5.48632812 C34.72765758 7.00502742 42.266562 8.5298364 49.8046875 10.05859375 C50.5747439 22.97350791 51.1581391 35.88285583 51.51448917 48.81617165 C51.6857132 54.82571429 51.91684607 60.81941543 52.29418945 66.81982422 C54.74804117 106.84167358 54.74804117 106.84167358 46.47528076 116.48034668 C39.88492427 122.93457718 25.60095094 134.05859375 15.8046875 134.05859375 C15.62292969 132.81207031 15.44117188 131.56554687 15.25390625 130.28125 C14.00967343 121.82965244 12.72234497 113.39885849 11.1796875 104.99609375 C10.02837876 98.70276153 9.20475683 92.44590757 8.8046875 86.05859375 C8.21945312 85.91164063 7.63421875 85.7646875 7.03125 85.61328125 C2.40312478 84.40413142 -2.14833316 83.10157249 -6.65234375 81.48828125 C-7.82240967 81.07473389 -7.82240967 81.07473389 -9.01611328 80.65283203 C-10.56518114 80.10025552 -12.10945635 79.53400727 -13.64794922 78.95263672 C-23.3972169 75.49945771 -31.29699013 78.86653116 -40.6953125 82.12109375 C-41.80390625 82.49814453 -42.9125 82.87519531 -44.0546875 83.26367188 C-46.77064179 84.18850114 -49.48399331 85.12028091 -52.1953125 86.05859375 C-52.80275376 89.78723431 -53.4059497 93.51654882 -54.0078125 97.24609375 C-54.28020752 98.92844116 -54.28020752 98.92844116 -54.55810547 100.64477539 C-55.44894036 106.1978029 -56.30704944 111.75048796 -57.05859375 117.32421875 C-57.25328247 118.76244995 -57.25328247 118.76244995 -57.4519043 120.22973633 C-57.69382605 122.04631381 -57.92859608 123.86386088 -58.15551758 125.68237305 C-58.97664684 131.83992809 -58.97664684 131.83992809 -61.1953125 134.05859375 C-73.23093966 129.28547839 -86.8337305 123.21324198 -94.1953125 112.05859375 C-100.16465341 97.32607884 -97.43362422 78.72718746 -96.46124268 63.26464844 C-96.12019322 57.26103194 -95.97224887 51.25274821 -95.80664062 45.2421875 C-95.45534929 33.50214272 -94.8943678 21.78272094 -94.1953125 10.05859375 C-93.11600464 9.8515255 -93.11600464 9.8515255 -92.01489258 9.64027405 C-73.59592756 6.11523337 -73.59592756 6.11523337 -55.1953125 2.49609375 C-54.17751709 2.29483887 -53.15972168 2.09358398 -52.11108398 1.88623047 C-47.37987395 0.9412524 -42.66997086 -0.0445052 -37.98046875 -1.1796875 C-37.17673828 -1.37167725 -36.37300781 -1.56366699 -35.54492188 -1.76147461 C-34.09340717 -2.11366215 -32.64493967 -2.47886411 -31.20117188 -2.86157227 C-20.89207875 -5.36349415 -10.16487848 -2.07205114 0 0 Z " fill="#F2F2E4" transform="translate(278.1953125,307.94140625)"/>
<path d="M0 0 C6.27 0 12.54 0 19 0 C28.75185644 18.44331683 28.75185644 18.44331683 32.125 25.0625 C32.49882812 25.79597656 32.87265625 26.52945312 33.2578125 27.28515625 C34 29 34 29 34 31 C35.14553345 31.16109253 35.14553345 31.16109253 36.31420898 31.32543945 C42.39286849 32.21603694 48.40306293 33.25162118 54.41015625 34.54296875 C55.66763672 34.81173828 56.92511719 35.08050781 58.22070312 35.35742188 C60.78807317 35.91214087 63.35320814 36.47730421 65.91601562 37.05273438 C79.50077957 39.91745371 90.87514352 37.83136583 104.3125 35 C106.93297072 34.4552541 109.55430526 33.91491025 112.17578125 33.375 C113.31958252 33.13523437 114.46338379 32.89546875 115.6418457 32.6484375 C119.0838247 31.983814 122.52629559 31.4679802 126 31 C126.40883423 29.69446167 126.40883423 29.69446167 126.82592773 28.36254883 C127.9466156 25.15289319 129.26092292 22.23479602 130.78515625 19.19921875 C131.31560547 18.14025391 131.84605469 17.08128906 132.39257812 15.99023438 C132.94365234 14.90033203 133.49472656 13.81042969 134.0625 12.6875 C134.61744141 11.57826172 135.17238281 10.46902344 135.74414062 9.32617188 C139.85956743 1.14043257 139.85956743 1.14043257 141 0 C142.63472882 -0.08700342 144.27314055 -0.10701063 145.91015625 -0.09765625 C146.89951172 -0.09443359 147.88886719 -0.09121094 148.90820312 -0.08789062 C149.94912109 -0.07951172 150.99003906 -0.07113281 152.0625 -0.0625 C153.62967773 -0.05573242 153.62967773 -0.05573242 155.22851562 -0.04882812 C157.8190666 -0.03699913 160.40950559 -0.02051689 163 0 C172.65355537 18.2504188 172.65355537 18.2504188 176.125 25.0625 C176.49882812 25.79597656 176.87265625 26.52945312 177.2578125 27.28515625 C178 29 178 29 178 31 C178.76368896 31.10739502 179.52737793 31.21479004 180.31420898 31.32543945 C186.39286849 32.21603694 192.40306293 33.25162118 198.41015625 34.54296875 C199.66763672 34.81173828 200.92511719 35.08050781 202.22070312 35.35742188 C204.78807317 35.91214087 207.35320814 36.47730421 209.91601562 37.05273438 C223.50077957 39.91745371 234.87514352 37.83136583 248.3125 35 C250.93297072 34.4552541 253.55430526 33.91491025 256.17578125 33.375 C257.31958252 33.13523437 258.46338379 32.89546875 259.6418457 32.6484375 C263.0838247 31.983814 266.52629559 31.4679802 270 31 C270.27255615 30.12964111 270.5451123 29.25928223 270.82592773 28.36254883 C271.9466156 25.15289319 273.26092292 22.23479602 274.78515625 19.19921875 C275.31560547 18.14025391 275.84605469 17.08128906 276.39257812 15.99023438 C276.94365234 14.90033203 277.49472656 13.81042969 278.0625 12.6875 C278.89491211 11.02364258 278.89491211 11.02364258 279.74414062 9.32617188 C283.85956743 1.14043257 283.85956743 1.14043257 285 0 C291.27 0 297.54 0 304 0 C304 13.86 304 27.72 304 42 C299.813125 42.70125 295.62625 43.4025 291.3125 44.125 C280.62707936 45.94827916 269.99123261 47.93444754 259.375 50.125 C258.19848877 50.36621582 257.02197754 50.60743164 255.80981445 50.85595703 C250.5339382 51.96074583 245.38201032 53.16566909 240.2265625 54.7421875 C235.09830798 56.16543939 231.17759428 56.00702029 226 55 C225.0826709 54.84611816 224.1653418 54.69223633 223.22021484 54.53369141 C220.03609766 53.99176876 216.86214071 53.40736841 213.6875 52.8125 C212.51977051 52.5954541 211.35204102 52.3784082 210.14892578 52.15478516 C201.52716975 50.52979633 192.94812171 48.7380378 184.375 46.875 C172.89447106 44.37421943 172.89447106 44.37421943 161.375 42.0625 C160.16585937 41.82660156 158.95671875 41.59070313 157.7109375 41.34765625 C148.41367366 40.47664943 139.25143047 42.83692011 130.19294167 44.72903824 C127.91042172 45.2050324 125.62646445 45.67346765 123.34196472 46.13986206 C116.85436763 47.4652788 110.36887729 48.80067482 103.88598633 50.14892578 C99.90181424 50.97696873 95.91544467 51.79361914 91.92749596 52.60326767 C90.41681943 52.91231917 88.90701835 53.22568417 87.39817238 53.5435524 C85.28807497 53.98781498 83.17547271 54.41752179 81.06176758 54.84423828 C79.86393143 55.09215118 78.66609528 55.34006409 77.43196106 55.5954895 C72.3833296 56.19054999 67.7361222 55.25219088 62.83203125 54.08984375 C42.03029866 49.31098135 21.00541759 45.76692899 0 42 C0 28.14 0 14.28 0 0 Z " fill="#B2544D" transform="translate(104,248)"/>
<path d="M0 0 C11.4302452 5.41432667 22.82446675 10.83108563 34.125 16.5 C35.37884145 17.12512999 36.63274774 17.75012994 37.88671875 18.375 C39.06105469 18.9628125 40.23539062 19.550625 41.4453125 20.15625 C42.49219238 20.68025391 43.53907227 21.20425781 44.61767578 21.74414062 C47 23 47 23 48 24 C48.09785825 26.71853757 48.12993566 29.41166147 48.12025452 32.13063049 C48.12110894 32.99311447 48.12196337 33.85559844 48.12284368 34.74421829 C48.12450114 37.65705481 48.1189728 40.56983473 48.11352539 43.48266602 C48.11324355 45.5616048 48.11340119 47.64054369 48.1139679 49.71948242 C48.11425599 55.38247439 48.10835731 61.04544537 48.10139394 66.70843244 C48.09516241 72.61949893 48.09455676 78.53056586 48.09336853 84.44163513 C48.09025462 95.64367695 48.08204043 106.84570906 48.07201904 118.0477466 C48.06085975 130.79722363 48.05534792 143.54670111 48.05032361 156.2961818 C48.03985786 182.53079449 48.02151164 208.76539388 48 235 C32.16 235 16.32 235 0 235 C0 229.72 0 224.44 0 219 C10.56 219 21.12 219 32 219 C32 203.16 32 187.32 32 171 C21.44 171 10.88 171 0 171 C0 165.72 0 160.44 0 155 C10.56 155 21.12 155 32 155 C32 139.16 32 123.32 32 107 C21.44 107 10.88 107 0 107 C0 101.72 0 96.44 0 91 C10.56 91 21.12 91 32 91 C32 75.16 32 59.32 32 43 C21.44 43 10.88 43 0 43 C0 28.81 0 14.62 0 0 Z " fill="#A9BDCD" transform="translate(424,197)"/>
<path d="M0 0 C0 14.19 0 28.38 0 43 C-10.56 43 -21.12 43 -32 43 C-32 58.84 -32 74.68 -32 91 C-21.44 91 -10.88 91 0 91 C0 96.28 0 101.56 0 107 C-10.56 107 -21.12 107 -32 107 C-32 122.84 -32 138.68 -32 155 C-21.44 155 -10.88 155 0 155 C0 160.28 0 165.56 0 171 C-10.56 171 -21.12 171 -32 171 C-32 186.84 -32 202.68 -32 219 C-21.44 219 -10.88 219 0 219 C0 224.28 0 229.56 0 235 C-15.84 235 -31.68 235 -48 235 C-48 165.37 -48 95.74 -48 24 C-36.65963959 18.03138926 -25.34033231 12.08874646 -13.875 6.375 C-12.62102871 5.74622343 -11.36712249 5.1173171 -10.11328125 4.48828125 C-8.93894531 3.90175781 -7.76460937 3.31523437 -6.5546875 2.7109375 C-5.50780762 2.18806152 -4.46092773 1.66518555 -3.38232422 1.12646484 C-1 0 -1 0 0 0 Z " fill="#A9BDCD" transform="translate(88,197)"/>
<path d="M0 0 C0 56.43 0 112.86 0 171 C-10.78159242 168.0595657 -21.39811338 164.53396221 -32 161 C-32 109.85 -32 58.7 -32 6 C-3 0 -3 0 0 0 Z " fill="#7C8C9B" transform="translate(408,306)"/>
<path d="M0 0 C10.78617001 1.19846333 21.39514752 3.69459729 32 6 C32 56.82 32 107.64 32 160 C21.52744876 164.1890205 10.74831943 167.58008018 0 171 C0 114.57 0 58.14 0 0 Z " fill="#7C8C9B" transform="translate(104,306)"/>
<path d="M0 0 C-0.96679688 0.83402344 -1.93359375 1.66804688 -2.9296875 2.52734375 C-11.6567307 10.06284395 -11.6567307 10.06284395 -20.25 17.75 C-23.52149835 20.71967972 -26.86969572 23.54339555 -30.3125 26.3125 C-35.12665588 30.20320708 -39.64924334 34.33000466 -44.16333008 38.55786133 C-48.35293609 42.45968389 -52.72154714 46.07310178 -57.1875 49.65625 C-60.39849805 52.33208171 -63.45029137 55.14358276 -66.5 58 C-71.23866464 62.43832674 -76.12119326 66.5914225 -81.1875 70.65625 C-84.39849805 73.33208171 -87.45029137 76.14358276 -90.5 79 C-95.23866464 83.43832674 -100.12119326 87.5914225 -105.1875 91.65625 C-108.39850062 94.33208385 -111.45026135 97.14361138 -114.5 100 C-119.27113422 104.46793769 -124.17910503 108.6675657 -129.28515625 112.75390625 C-133.27052613 116.05115471 -137.022108 119.58181486 -140.78515625 123.12890625 C-143 125 -143 125 -145 125 C-145.71920257 117.36922601 -146.43040639 109.73773588 -147.13623047 102.10571289 C-147.37693077 99.51309604 -147.6194164 96.92064426 -147.86376953 94.32836914 C-148.21604021 90.58782965 -148.561743 86.84673032 -148.90625 83.10546875 C-149.0156189 81.95918503 -149.12498779 80.81290131 -149.2376709 79.63188171 C-149.86566654 72.72914184 -150.11043635 65.9290264 -150 59 C-142.84235708 55.67954173 -135.63543616 52.57382298 -128.29736328 49.67553711 C-127.28895386 49.27467896 -126.28054443 48.8738208 -125.24157715 48.46081543 C-123.06893193 47.5975713 -120.89579222 46.73557086 -118.7222023 45.87470818 C-115.25104915 44.49991106 -111.78124421 43.12175845 -108.31173706 41.74281311 C-101.54059709 39.05232204 -94.76803263 36.36543123 -87.99517822 33.67926025 C-78.86505179 30.05801987 -69.73576592 26.4346689 -60.60790253 22.80772781 C-58.25577182 21.87329307 -55.90346251 20.93930778 -53.55097198 20.00577927 C-37.31451596 13.56203645 -37.31451596 13.56203645 -21.15917969 6.91845703 C-20.44944189 6.62169477 -19.73970409 6.3249325 -19.00845909 6.01917744 C-15.89268103 4.71333458 -12.78296931 3.39585129 -9.67922974 2.06150818 C-8.15554276 1.41533287 -8.15554276 1.41533287 -6.60107422 0.75610352 C-5.74746307 0.38775894 -4.89385193 0.01941437 -4.01437378 -0.36009216 C-2 -1 -2 -1 0 0 Z " fill="#DA3D45" transform="translate(447,50)"/>
<path d="M0 0 C6.5725024 2.0984461 12.9731438 4.51154005 19.36791992 7.09741211 C20.36467743 7.49797821 21.36143494 7.89854431 22.38839722 8.31124878 C25.67010125 9.6307771 28.95027987 10.95405396 32.23046875 12.27734375 C34.54460606 13.20862045 36.8588423 14.13965135 39.173172 15.07044983 C44.65218307 17.27469253 50.13025519 19.48125483 55.60785323 21.68900639 C62.3269081 24.39700468 69.04720842 27.10190717 75.76757812 29.80664062 C82.82331649 32.6463508 89.87897249 35.48626242 96.93380737 38.32821655 C106.60959477 42.22543732 116.28598287 46.12087255 125.97509766 49.98486328 C126.70146707 50.27464459 127.42783648 50.56442591 128.17621708 50.86298847 C131.37418221 52.13835997 134.57299324 53.41149342 137.77323914 54.68113708 C138.82944962 55.10161819 139.8856601 55.5220993 140.97387695 55.95532227 C141.86089798 56.3071608 142.74791901 56.65899933 143.66181946 57.02149963 C145.82869167 57.92830953 147.91439661 58.92098316 150 60 C150.16017882 68.10434919 149.67574611 76.04046223 148.90625 84.10546875 C148.79526978 85.3106868 148.68428955 86.51590485 148.56994629 87.75764465 C148.2179944 91.56804956 147.85911347 95.37776406 147.5 99.1875 C147.25865447 101.7870667 147.01776457 104.38667574 146.77734375 106.98632812 C146.190162 113.32471777 145.59730578 119.66255682 145 126 C141.59170063 124.38182825 139.20469242 122.52234036 136.4375 119.9375 C132.94081047 116.72708915 129.39200607 113.65543761 125.6875 110.6875 C120.87334412 106.79679292 116.35075666 102.66999534 111.83666992 98.44213867 C108.48935757 95.32475274 105.07013212 92.36440833 101.5 89.5 C96.73891522 85.68005989 92.28726975 81.61061181 87.8359375 77.44140625 C84.48883131 74.32431446 81.06985859 71.36418887 77.5 68.5 C72.73891522 64.68005989 68.28726975 60.61061181 63.8359375 56.44140625 C60.48883131 53.32431446 57.06985859 50.36418887 53.5 47.5 C48.73891522 43.68005989 44.28726975 39.61061181 39.8359375 35.44140625 C36.48883131 32.32431446 33.06985859 29.36418887 29.5 26.5 C24.74878782 22.68798093 20.30320927 18.62997019 15.86450195 14.46557617 C11.39421256 10.29728802 6.74268006 6.43963971 1.94921875 2.64453125 C1.30597656 2.10183594 0.66273437 1.55914062 0 1 C0 0.67 0 0.34 0 0 Z " fill="#DA3D45" transform="translate(65,49)"/>
<path d="M0 0 C6.93 0 13.86 0 21 0 C20.01 3.3 19.02 6.6 18 10 C17.24135291 20.11529454 19.26747982 28.62562463 25.1953125 36.95703125 C30.15839815 42.57541609 36.9623033 46.56020108 44.4609375 47.21484375 C54.76022807 47.57546317 64.25634969 45.06256443 72 38 C78.80382189 29.30218058 80.66026788 20.82839319 80 10 C79.01 6.7 78.02 3.4 77 0 C83.93 0 90.86 0 98 0 C98.43159075 5.88556194 98.86023199 11.77119746 99.28173828 17.6574707 C99.42557825 19.65433633 99.57104704 21.6510854 99.71826172 23.64770508 C100.51331315 34.4458016 101.27744231 45.16562101 101 56 C85.0469747 63.8518709 70.13517973 65.2766023 52.59790039 65.04296875 C49.12862602 64.99732845 45.66425727 65.02444817 42.19515038 65.07058716 C25.68160568 65.25553113 11.8100575 63.76718016 -3 56 C-3.30270929 44.17892209 -2.36856843 32.4675808 -1.5 20.6875 C-1.35504541 18.67516066 -1.21051091 16.66279101 -1.06640625 14.65039062 C-0.71655088 9.76649009 -0.35809671 4.88333078 0 0 Z " fill="#384C5A" transform="translate(207,32)"/>
<path d="M0 0 C0.95422852 0.35771484 0.95422852 0.35771484 1.92773438 0.72265625 C3.47652732 1.30490924 5.02010253 1.90101069 6.5625 2.5 C7.73476083 9.69565757 8.88782632 16.89416886 10.0234375 24.09570312 C10.36600117 26.25906716 10.71196535 28.42189759 11.0625 30.58398438 C11.51223627 33.36672756 11.94570169 36.15154082 12.375 38.9375 C12.51075439 39.75694092 12.64650879 40.57638184 12.78637695 41.4206543 C14.1902834 50.78098761 12.66932139 59.13279292 10 68.125 C9.195625 70.88875 8.39125 73.6525 7.5625 76.5 C-4.3175 76.5 -16.1975 76.5 -28.4375 76.5 C-35.59426018 52.09361271 -35.59426018 52.09361271 -33.53515625 42.828125 C-32.44507978 37.65851268 -31.65594977 32.4826032 -30.9375 27.25 C-30.68099913 25.41796741 -30.42448868 23.58593617 -30.16796875 21.75390625 C-30.04470215 20.86590332 -29.92143555 19.97790039 -29.79443359 19.06298828 C-29.28937857 15.43640304 -28.76989092 11.81198778 -28.25 8.1875 C-28.09144531 7.07761719 -27.93289062 5.96773438 -27.76953125 4.82421875 C-27.60517578 3.67373047 -27.60517578 3.67373047 -27.4375 2.5 C-25.8337669 1.85309078 -24.22949694 1.20751236 -22.625 0.5625 C-21.28501953 0.02302734 -21.28501953 0.02302734 -19.91796875 -0.52734375 C-12.60013534 -3.39685638 -7.31175155 -2.78542916 0 0 Z " fill="#384C5B" transform="translate(266.4375,403.5)"/>
<path d="M0 0 C11 1 11 1 16 2 C16 48.2 16 94.4 16 142 C8.08 143.98 8.08 143.98 0 146 C0 97.82 0 49.64 0 0 Z " fill="#DC3D45" transform="translate(152,316)"/>
<path d="M0 0 C0 48.18 0 96.36 0 146 C-5.28 144.68 -10.56 143.36 -16 142 C-16 95.8 -16 49.6 -16 2 C-5 0 -5 0 0 0 Z " fill="#DC3D45" transform="translate(360,316)"/>
<path d="M0 0 C3.72937727 1.10658571 7.18333447 2.51545242 10.6796875 4.19921875 C11.52660156 4.60333984 12.37351563 5.00746094 13.24609375 5.42382812 C14.99697261 6.26544672 16.74186616 7.11963343 18.48046875 7.98632812 C23.88661183 10.53353211 28.12090959 11.89953264 34 10 C37.87846648 8.48297595 41.62373695 6.74357168 45.375 4.9375 C47.33967073 4.005997 49.30574746 3.07745175 51.2734375 2.15234375 C52.13372559 1.73976318 52.99401367 1.32718262 53.88037109 0.90209961 C56 0 56 0 58 0 C59.41193641 10.41303106 60.30028643 20.47329223 60 31 C53.34673149 34.18008649 46.57687123 37.09033673 39.75 39.875 C38.99412598 40.19734619 38.23825195 40.51969238 37.45947266 40.85180664 C27.76587436 44.73073499 20.32147704 40.77937412 11.125 37 C9.97257813 36.5359375 8.82015625 36.071875 7.6328125 35.59375 C-0.84561012 32.15438988 -0.84561012 32.15438988 -2 31 C-2.68443115 20.55844565 -1.3996506 10.32242321 0 0 Z " fill="#FAD37F" transform="translate(227,156)"/>
<path d="M0 0 C5.7451493 3.25327731 10.65807763 7.68001804 13.3203125 13.80078125 C14.98237727 19.91925717 14.99526937 26.55143844 12.4453125 32.4140625 C8.891786 38.46261824 2.59652951 43.92712617 -4.0546875 46.1015625 C-11.44581507 46.93908404 -18.01031982 46.75207815 -24.0546875 42.1015625 C-30.31146473 36.28629173 -34.10878598 30.36248449 -34.4921875 21.6640625 C-34.25525412 14.99347647 -32.56364046 10.73689929 -27.9609375 5.90234375 C-19.7156089 -1.75206963 -10.78488932 -4.67199659 0 0 Z " fill="#000102" transform="translate(378.0546875,169.8984375)"/>
<path d="M0 0 C5.7451493 3.25327731 10.65807763 7.68001804 13.3203125 13.80078125 C14.98237727 19.91925717 14.99526937 26.55143844 12.4453125 32.4140625 C8.891786 38.46261824 2.59652951 43.92712617 -4.0546875 46.1015625 C-11.44581507 46.93908404 -18.01031982 46.75207815 -24.0546875 42.1015625 C-30.31146473 36.28629173 -34.10878598 30.36248449 -34.4921875 21.6640625 C-34.25525412 14.99347647 -32.56364046 10.73689929 -27.9609375 5.90234375 C-19.7156089 -1.75206963 -10.78488932 -4.67199659 0 0 Z " fill="#000102" transform="translate(154.0546875,169.8984375)"/>
<path d="M0 0 C16.5 0 33 0 50 0 C52.25 19.125 52.25 19.125 52 27 C47.96576804 29.04361823 43.9230148 31.06838576 39.86865234 33.07177734 C38.1844802 33.90836246 36.50776431 34.7599178 34.83203125 35.61328125 C33.43017578 36.29970703 33.43017578 36.29970703 32 37 C31.175 37.4125 30.35 37.825 29.5 38.25 C24.58092225 39.72572332 20.13511499 37.82309192 15.63671875 35.75 C14.18362305 35.08484375 14.18362305 35.08484375 12.70117188 34.40625 C11.70666016 33.9421875 10.71214844 33.478125 9.6875 33 C8.67365234 32.5359375 7.65980469 32.071875 6.61523438 31.59375 C-0.84324534 28.15675466 -0.84324534 28.15675466 -2 27 C-2.88898792 18.06877257 -1.02424786 8.70610684 0 0 Z " fill="#F1F1E3" transform="translate(231,112)"/>
<path d="M0 0 C28.38 0 56.76 0 86 0 C78 17 78 17 71.4453125 19.9375 C69.01750274 20.36794411 66.57485935 20.7211962 64.125 21 C62.90941406 21.20109375 61.69382812 21.4021875 60.44140625 21.609375 C56.96655903 22.16415104 53.4946204 22.59204117 50 23 C48.74098877 23.20955322 48.74098877 23.20955322 47.45654297 23.42333984 C40.16876216 24.51765164 33.17632871 23.40539492 26.01318359 22.01855469 C24.58964632 21.75653801 23.15990603 21.52620947 21.72607422 21.328125 C21.02111816 21.23015625 20.31616211 21.1321875 19.58984375 21.03125 C18.96827393 20.95277832 18.3467041 20.87430664 17.70629883 20.79345703 C14.33547946 19.9540959 11.18625924 18.38372772 8 17 C4.04 8.585 4.04 8.585 0 0 Z " fill="#FCD580" transform="translate(285,248)"/>
<path d="M0 0 C28.38 0 56.76 0 86 0 C78 17 78 17 71.4453125 19.9375 C69.01750274 20.36794411 66.57485935 20.7211962 64.125 21 C62.90941406 21.20109375 61.69382813 21.4021875 60.44140625 21.609375 C56.96655903 22.16415104 53.4946204 22.59204117 50 23 C48.74098877 23.20955322 48.74098877 23.20955322 47.45654297 23.42333984 C40.16876216 24.51765164 33.17632871 23.40539492 26.01318359 22.01855469 C24.58964632 21.75653801 23.15990603 21.52620947 21.72607422 21.328125 C21.02111816 21.23015625 20.31616211 21.1321875 19.58984375 21.03125 C18.96827393 20.95277832 18.3467041 20.87430664 17.70629883 20.79345703 C14.33547946 19.9540959 11.18625924 18.38372772 8 17 C4.04 8.585 4.04 8.585 0 0 Z " fill="#FCD580" transform="translate(141,248)"/>
<path d="M0 0 C2.42237939 0.5059961 4.84726263 0.9981646 7.27294922 1.48803711 C8.8160784 1.80300734 10.35905329 2.11873465 11.90185547 2.43530273 C12.98768921 2.65723549 12.98768921 2.65723549 14.09545898 2.88365173 C19.16639047 3.94647649 19.16639047 3.94647649 21.40185547 5.06420898 C20.41185547 10.34420898 19.42185547 15.62420898 18.40185547 21.06420898 C10.02145591 20.29915677 1.94063958 18.59186658 -6.27197266 16.79272461 C-18.78391826 14.17110131 -29.17755018 15.49934854 -41.53564453 18.06420898 C-43.64825925 18.49497134 -45.76138864 18.92298193 -47.87513733 19.34814453 C-49.77466765 19.73136874 -51.67266132 20.12218668 -53.57055664 20.51342773 C-56.59814453 21.06420898 -56.59814453 21.06420898 -59.59814453 21.06420898 C-60.58814453 15.78420898 -61.57814453 10.50420898 -62.59814453 5.06420898 C-54.42268846 2.97438101 -46.24122448 1.0618903 -37.97314453 -0.62329102 C-36.91869141 -0.84823242 -35.86423828 -1.07317383 -34.77783203 -1.30493164 C-22.39132795 -3.82668897 -12.22437032 -2.55417727 0 0 Z " fill="#070808" transform="translate(276.59814453125,354.935791015625)"/>
<path d="M0 0 C2.42237939 0.5059961 4.84726263 0.9981646 7.27294922 1.48803711 C8.8160784 1.80300734 10.35905329 2.11873465 11.90185547 2.43530273 C12.98768921 2.65723549 12.98768921 2.65723549 14.09545898 2.88365173 C19.16639047 3.94647649 19.16639047 3.94647649 21.40185547 5.06420898 C20.41185547 10.34420898 19.42185547 15.62420898 18.40185547 21.06420898 C10.02145591 20.29915677 1.94063958 18.59186658 -6.27197266 16.79272461 C-18.78391826 14.17110131 -29.17755018 15.49934854 -41.53564453 18.06420898 C-43.64825925 18.49497134 -45.76138864 18.92298193 -47.87513733 19.34814453 C-49.77466765 19.73136874 -51.67266132 20.12218668 -53.57055664 20.51342773 C-56.59814453 21.06420898 -56.59814453 21.06420898 -59.59814453 21.06420898 C-60.58814453 15.78420898 -61.57814453 10.50420898 -62.59814453 5.06420898 C-54.42268846 2.97438101 -46.24122448 1.0618903 -37.97314453 -0.62329102 C-36.91869141 -0.84823242 -35.86423828 -1.07317383 -34.77783203 -1.30493164 C-22.39132795 -3.82668897 -12.22437032 -2.55417727 0 0 Z " fill="#070808" transform="translate(276.59814453125,322.935791015625)"/>
<path d="M0 0 C4.98669007 2.49334503 8.49675474 5.99350949 11 11 C11.3962444 16.84460492 10.95926533 20.77196458 8 26 C4.11965584 30.00451517 0.83092967 32.15183687 -4.75 32.3125 C-9.6322451 32.25622052 -12.25873246 31.29587855 -16 28 C-20.39893104 23.00661882 -21.35676337 20.08984773 -21.28125 13.5390625 C-20.73016315 8.56397287 -17.99302299 5.87480597 -14.375 2.6875 C-9.71860985 -0.62098774 -5.60468123 -0.62082623 0 0 Z " fill="#EDEDE0" transform="translate(261,32)"/>
<path d="M0 0 C4.15401517 2.64955513 7.75523372 5.44218975 11.375 8.8125 C16.5904754 13.62569922 21.8859023 18.3254135 27.26953125 22.94921875 C28.00558594 23.58472656 28.74164063 24.22023437 29.5 24.875 C30.50546875 25.73738281 30.50546875 25.73738281 31.53125 26.6171875 C32.0159375 27.07351562 32.500625 27.52984375 33 28 C33 28.33 33 28.66 33 29 C21.45 29 9.9 29 -2 29 C-2 19.76 -2 10.52 -2 1 C-1.34 0.67 -0.68 0.34 0 0 Z " fill="#A8BBCB" transform="translate(106,107)"/>
<path d="M0 0 C0.99 0.33 1.98 0.66 3 1 C3 10.24 3 19.48 3 29 C-8.55 29 -20.1 29 -32 29 C-28.50923191 24.81107829 -26.10694306 22.06789781 -22 18.875 C-16.88744133 14.79745661 -12.08487658 10.47168997 -7.328125 5.98583984 C-4.96324223 3.76510371 -2.70719217 1.80479478 0 0 Z " fill="#A8BBCB" transform="translate(405,107)"/>
<path d="M0 0 C5.28 0 10.56 0 16 0 C16 5.28 16 10.56 16 16 C10.72 16 5.44 16 0 16 C0 10.72 0 5.44 0 0 Z " fill="#394D5C" transform="translate(424,384)"/>
<path d="M0 0 C5.28 0 10.56 0 16 0 C16 5.28 16 10.56 16 16 C10.72 16 5.44 16 0 16 C0 10.72 0 5.44 0 0 Z " fill="#394D5C" transform="translate(72,384)"/>
<path d="M0 0 C5.28 0 10.56 0 16 0 C16 5.28 16 10.56 16 16 C10.72 16 5.44 16 0 16 C0 10.72 0 5.44 0 0 Z " fill="#394D5C" transform="translate(424,320)"/>
<path d="M0 0 C5.28 0 10.56 0 16 0 C16 5.28 16 10.56 16 16 C10.72 16 5.44 16 0 16 C0 10.72 0 5.44 0 0 Z " fill="#394D5C" transform="translate(72,320)"/>
<path d="M0 0 C5.28 0 10.56 0 16 0 C16 5.28 16 10.56 16 16 C10.72 16 5.44 16 0 16 C0 10.72 0 5.44 0 0 Z " fill="#394D5C" transform="translate(424,256)"/>
<path d="M0 0 C5.28 0 10.56 0 16 0 C16 5.28 16 10.56 16 16 C10.72 16 5.44 16 0 16 C0 10.72 0 5.44 0 0 Z " fill="#394D5C" transform="translate(72,256)"/>
<path d="M0 0 C2.66589042 0.54323805 3.75768995 0.96351964 5.875 2.75 C7.21538506 5.84964046 7.42167869 7.71409302 6.875 11.0625 C4.41905875 14.38524404 2.9493356 15.83868008 -1.125 16.6875 C-5.1993356 15.83868008 -6.66905875 14.38524404 -9.125 11.0625 C-9.75 8.0625 -9.75 8.0625 -9.125 5.0625 C-6.50620524 1.2161452 -4.62486834 -0.35838463 0 0 Z " fill="#E9E9DC" transform="translate(369.125,183.9375)"/>
<path d="M0 0 C2.66589042 0.54323805 3.75768995 0.96351964 5.875 2.75 C7.21538506 5.84964046 7.42167869 7.71409302 6.875 11.0625 C4.41905875 14.38524404 2.9493356 15.83868008 -1.125 16.6875 C-5.1993356 15.83868008 -6.66905875 14.38524404 -9.125 11.0625 C-9.75 8.0625 -9.75 8.0625 -9.125 5.0625 C-6.50620524 1.2161452 -4.62486834 -0.35838463 0 0 Z " fill="#E9E9DC" transform="translate(145.125,183.9375)"/>
</svg>
